<svg width="289.6750061035156px" height="100.00000610351562px" xmlns="http://www.w3.org/2000/svg" viewBox="105.1624969482422 24.99999694824219 289.6750061035156 100.00000610351562" style="background: rgba(0, 0, 0, 0);" preserveAspectRatio="xMidYMid"><defs><filter id="editing-hole" x="-100%" y="-100%" width="300%" height="300%"><feFlood flood-color="#000000" result="black"></feFlood><feMorphology operator="dilate" radius="2" in="SourceGraphic" result="erode"></feMorphology><feGaussianBlur in="erode" stdDeviation="4" result="blur"></feGaussianBlur><feOffset in="blur" dx="2" dy="2" result="offset"></feOffset><feComposite operator="atop" in="offset" in2="black" result="merge"></feComposite><feComposite operator="in" in="merge" in2="SourceGraphic" result="inner-shadow"></feComposite></filter></defs><g filter="url(#editing-hole)"><g transform="translate(152.38262939453125, 98.8499984741211)"><path d="M1.49-30.70L1.49-31.51L16.19-31.51L16.19-30.70L16.19-30.70Q15.03-30.70 14.28-30.45L14.28-30.45L14.28-30.45Q13.54-30.21 13.10-29.79L13.10-29.79L13.10-29.79Q12.66-29.38 12.49-28.85L12.49-28.85L12.49-28.85Q12.33-28.32 12.33-27.73L12.33-27.73L12.33-12.59L12.33-12.59Q12.33-8.64 11.76-5.44L11.76-5.44L11.76-5.44Q11.18-2.24 10.26 0.30L10.26 0.30L10.26 0.30Q9.34 2.83 8.15 4.78L8.15 4.78L8.15 4.78Q6.97 6.72 5.73 8.13L5.73 8.13L5.73 8.13Q2.83 11.45-0.86 13.05L-0.86 13.05L-1.25 12.33L-1.25 12.33Q0.59 10.57 2.04 7.78L2.04 7.78L2.04 7.78Q2.66 6.59 3.25 5.08L3.25 5.08L3.25 5.08Q3.85 3.56 4.32 1.68L4.32 1.68L4.32 1.68Q4.79-0.20 5.08-2.45L5.08-2.45L5.08-2.45Q5.36-4.70 5.36-7.34L5.36-7.34L5.36-27.82L5.36-27.82Q5.36-28.26 5.20-28.76L5.20-28.76L5.20-28.76Q5.03-29.27 4.60-29.70L4.60-29.70L4.60-29.70Q4.17-30.12 3.43-30.41L3.43-30.41L3.43-30.41Q2.68-30.70 1.49-30.70L1.49-30.70ZM32.26-24.57L32.26-24.57L32.26-24.57Q33.90-24.57 35.28-24.21L35.28-24.21L35.28-24.21Q36.65-23.86 37.72-23.36L37.72-23.36L37.72-23.36Q38.78-22.85 39.56-22.28L39.56-22.28L39.56-22.28Q40.34-21.71 40.80-21.25L40.80-21.25L40.80-21.25Q41.48-21.77 42.28-22.20L42.28-22.20L42.28-22.20Q43.07-22.63 43.88-22.94L43.88-22.94L43.88-22.94Q44.69-23.25 45.49-23.41L45.49-23.41L45.49-23.41Q46.30-23.58 47.02-23.62L47.02-23.62L47.29-22.90L47.29-22.90Q46.41-22.54 45.70-21.75L45.70-21.75L45.70-21.75Q45.11-21.07 44.60-19.89L44.60-19.89L44.60-19.89Q44.10-18.70 44.06-16.79L44.06-16.79L44.06-16.79Q44.03-15.67 44.03-14.46L44.03-14.46L44.03-14.46Q44.03-13.25 44.02-12.07L44.02-12.07L44.02-12.07Q44.01-10.90 44.00-9.83L44.00-9.83L44.00-9.83Q43.99-8.77 43.98-7.93L43.98-7.93L43.98-7.93Q43.97-7.10 43.97-6.58L43.97-6.58L43.97-6.58Q43.97-6.06 43.97-5.98L43.97-5.98L43.97-5.98Q43.97-4.06 44.46-2.88L44.46-2.88L44.46-2.88Q44.96-1.69 45.57-1.01L45.57-1.01L45.57-1.01Q46.30-0.22 47.20 0.13L47.20 0.13L46.93 0.86L46.93 0.86Q45.86 0.81 44.63 0.48L44.63 0.48L44.63 0.48Q43.40 0.15 42.23-0.44L42.23-0.44L42.23-0.44Q41.07-1.03 40.08-1.86L40.08-1.86L40.08-1.86Q39.09-2.68 38.47-3.74L38.47-3.74L38.47-3.74Q38.03-2.90 37.35-2.11L37.35-2.11L37.35-2.11Q36.67-1.32 35.68-0.70L35.68-0.70L35.68-0.70Q34.69-0.09 33.35 0.30L33.35 0.30L33.35 0.30Q32.01 0.68 30.28 0.68L30.28 0.68L30.28 0.68Q27.42 0.68 25.26-0.34L25.26-0.34L25.26-0.34Q23.09-1.36 21.64-3.02L21.64-3.02L21.64-3.02Q20.19-4.68 19.46-6.77L19.46-6.77L19.46-6.77Q18.72-8.85 18.72-10.99L18.72-10.99L18.72-10.99Q18.72-12.59 19.11-14.22L19.11-14.22L19.11-14.22Q19.49-15.84 20.25-17.35L20.25-17.35L20.25-17.35Q21.01-18.85 22.14-20.17L22.14-20.17L22.14-20.17Q23.27-21.49 24.77-22.47L24.77-22.47L24.77-22.47Q26.28-23.44 28.15-24.01L28.15-24.01L28.15-24.01Q30.01-24.57 32.26-24.57ZM32.34-1.63L32.34-1.63L32.34-1.63Q33.88-1.63 34.89-2.33L34.89-2.33L34.89-2.33Q35.90-3.03 36.51-4.04L36.51-4.04L36.51-4.04Q37.11-5.05 37.40-6.17L37.40-6.17L37.40-6.17Q37.68-7.29 37.79-8.15L37.79-8.15L37.97-16.48L37.97-16.48Q37.92-16.94 37.80-17.60L37.80-17.60L37.80-17.60Q37.68-18.26 37.44-18.96L37.44-18.96L37.44-18.96Q37.20-19.67 36.82-20.38L36.82-20.38L36.82-20.38Q36.43-21.09 35.84-21.64L35.84-21.64L35.84-21.64Q35.24-22.19 34.42-22.54L34.42-22.54L34.42-22.54Q33.60-22.90 32.50-22.90L32.50-22.90L32.50-22.90Q30.85-22.90 29.51-22.06L29.51-22.06L29.51-22.06Q28.17-21.23 27.22-19.79L27.22-19.79L27.22-19.79Q26.28-18.35 25.76-16.44L25.76-16.44L25.76-16.44Q25.25-14.52 25.25-12.37L25.25-12.37L25.25-12.37Q25.25-9.56 25.85-7.54L25.85-7.54L25.85-7.54Q26.46-5.52 27.45-4.20L27.45-4.20L27.45-4.20Q28.45-2.88 29.73-2.25L29.73-2.25L29.73-2.25Q31.00-1.63 32.34-1.63ZM76.68-1.16L76.95-0.18L76.95-0.18Q75.39 0.40 74.08 0.63L74.08 0.63L74.08 0.63Q72.77 0.86 71.70 0.86L71.70 0.86L71.70 0.86Q70.40 0.86 69.16 0.29L69.16 0.29L69.16 0.29Q67.92-0.29 66.80-1.19L66.80-1.19L66.80-1.19Q65.68-2.09 64.70-3.21L64.70-3.21L64.70-3.21Q63.72-4.33 62.94-5.43L62.94-5.43L62.94-5.43Q62.16-6.53 61.60-7.49L61.60-7.49L61.60-7.49Q61.04-8.46 60.75-9.05L60.75-9.05L60.75-9.05Q62.89-9.40 64.58-10.31L64.58-10.31L64.58-10.31Q65.30-10.70 65.98-11.24L65.98-11.24L65.98-11.24Q66.67-11.78 67.20-12.52L67.20-12.52L67.20-12.52Q67.74-13.27 68.07-14.22L68.07-14.22L68.07-14.22Q68.40-15.16 68.40-16.37L68.40-16.37L68.40-16.37Q68.40-18.04 67.79-19.13L67.79-19.13L67.79-19.13Q67.17-20.21 66.26-20.85L66.26-20.85L66.26-20.85Q65.35-21.49 64.28-21.74L64.28-21.74L64.28-21.74Q63.22-21.99 62.34-21.99L62.34-21.99L62.34-21.99Q61.46-21.99 60.88-21.82L60.88-21.82L60.88-21.82Q60.29-21.64 59.95-21.36L59.95-21.36L59.95-21.36Q59.61-21.07 59.48-20.69L59.48-20.69L59.48-20.69Q59.35-20.30 59.35-19.89L59.35-19.89L59.35-3.10L59.35-3.10Q59.35-2.77 59.46-2.37L59.46-2.37L59.46-2.37Q59.57-1.98 59.89-1.64L59.89-1.64L59.89-1.64Q60.21-1.30 60.79-1.05L60.79-1.05L60.79-1.05Q61.37-0.81 62.34-0.81L62.34-0.81L62.34 0L49.94 0L49.94-0.81L49.94-0.81Q50.87-0.81 51.45-1.00L51.45-1.00L51.45-1.00Q52.03-1.19 52.36-1.51L52.36-1.51L52.36-1.51Q52.69-1.82 52.81-2.23L52.81-2.23L52.81-2.23Q52.93-2.64 52.93-3.10L52.93-3.10L52.93-20.61L52.93-20.61Q52.93-20.94 52.81-21.32L52.81-21.32L52.81-21.32Q52.69-21.71 52.36-22.03L52.36-22.03L52.36-22.03Q52.03-22.35 51.45-22.55L51.45-22.55L51.45-22.55Q50.87-22.76 49.94-22.76L49.94-22.76L49.94-23.62L62.34-23.62L62.34-23.62Q64.71-23.62 66.99-23.21L66.99-23.21L66.99-23.21Q69.28-22.81 71.07-21.93L71.07-21.93L71.07-21.93Q72.86-21.05 73.96-19.68L73.96-19.68L73.96-19.68Q75.06-18.30 75.06-16.37L75.06-16.37L75.06-16.37Q75.06-14.83 74.38-13.67L74.38-13.67L74.38-13.67Q73.70-12.50 72.58-11.63L72.58-11.63L72.58-11.63Q71.46-10.77 70.02-10.18L70.02-10.18L70.02-10.18Q68.58-9.60 67.06-9.23L67.06-9.23L67.06-9.23Q67.90-7.69 68.99-6.19L68.99-6.19L68.99-6.19Q70.09-4.68 71.21-3.49L71.21-3.49L71.21-3.49Q72.33-2.31 73.38-1.58L73.38-1.58L73.38-1.58Q74.42-0.86 75.15-0.86L75.15-0.86L75.15-0.86Q75.37-0.86 75.77-0.91L75.77-0.91L75.77-0.91Q76.18-0.97 76.68-1.16L76.68-1.16ZM99.38 0L99.38-3.56L99.38-3.56Q98.85-2.77 98.09-2.01L98.09-2.01L98.09-2.01Q97.32-1.25 96.26-0.65L96.26-0.65L96.26-0.65Q95.21-0.04 93.87 0.32L93.87 0.32L93.87 0.32Q92.53 0.68 90.83 0.68L90.83 0.68L90.83 0.68Q87.98 0.68 85.81-0.34L85.81-0.34L85.81-0.34Q83.65-1.36 82.20-3.02L82.20-3.02L82.20-3.02Q80.75-4.68 80.01-6.77L80.01-6.77L80.01-6.77Q79.28-8.85 79.28-10.99L79.28-10.99L79.28-10.99Q79.28-12.59 79.60-14.22L79.60-14.22L79.60-14.22Q79.91-15.84 80.57-17.35L80.57-17.35L80.57-17.35Q81.23-18.85 82.24-20.17L82.24-20.17L82.24-20.17Q83.25-21.49 84.66-22.47L84.66-22.47L84.66-22.47Q86.07-23.44 87.87-24.01L87.87-24.01L87.87-24.01Q89.67-24.57 91.91-24.57L91.91-24.57L91.91-24.57Q93.19-24.57 94.31-24.36L94.31-24.36L94.31-24.36Q95.43-24.15 96.36-23.81L96.36-23.81L96.36-23.81Q97.29-23.47 98.05-23.04L98.05-23.04L98.05-23.04Q98.81-22.61 99.38-22.19L99.38-22.19L99.38-31.64L99.38-31.64Q99.38-31.97 99.26-32.35L99.26-32.35L99.26-32.35Q99.14-32.74 98.81-33.06L98.81-33.06L98.81-33.06Q98.48-33.38 97.91-33.59L97.91-33.59L97.91-33.59Q97.34-33.79 96.42-33.79L96.42-33.79L96.42-34.65L105.78-34.65L105.78-2.97L105.78-2.97Q105.78-2.64 105.90-2.26L105.90-2.26L105.90-2.26Q106.02-1.89 106.35-1.57L106.35-1.57L106.35-1.57Q106.68-1.25 107.26-1.03L107.26-1.03L107.26-1.03Q107.84-0.81 108.74-0.81L108.74-0.81L108.74 0L99.38 0ZM92.46-1.63L92.46-1.63L92.46-1.63Q93.89-1.63 94.97-2.15L94.97-2.15L94.97-2.15Q96.04-2.68 96.81-3.47L96.81-3.47L96.81-3.47Q97.58-4.26 98.07-5.22L98.07-5.22L98.07-5.22Q98.57-6.17 98.87-7.04L98.87-7.04L98.87-7.04Q99.16-7.91 99.27-8.56L99.27-8.56L99.27-8.56Q99.38-9.21 99.38-9.40L99.38-9.40L99.38-18.00L97.69-15.71L97.69-15.71Q97.58-17.71 96.99-19.29L96.99-19.29L96.99-19.29Q96.72-19.97 96.33-20.62L96.33-20.62L96.33-20.62Q95.93-21.27 95.35-21.77L95.35-21.77L95.35-21.77Q94.77-22.28 93.98-22.59L93.98-22.59L93.98-22.59Q93.19-22.90 92.15-22.90L92.15-22.90L92.15-22.90Q90.51-22.90 89.30-22.06L89.30-22.06L89.30-22.06Q88.09-21.23 87.32-19.79L87.32-19.79L87.32-19.79Q86.55-18.35 86.18-16.44L86.18-16.44L86.18-16.44Q85.80-14.52 85.80-12.37L85.80-12.37L85.80-12.37Q85.80-9.56 86.34-7.54L86.34-7.54L86.34-7.54Q86.88-5.52 87.78-4.20L87.78-4.20L87.78-4.20Q88.68-2.88 89.89-2.25L89.89-2.25L89.89-2.25Q91.10-1.63 92.46-1.63ZM137.92-13.73L118.56-13.73L118.56-13.73Q118.52-13.25 118.52-12.80L118.52-12.80L118.52-12.80Q118.52-12.35 118.52-11.89L118.52-11.89L118.52-11.89Q118.52-9.80 118.78-7.82L118.78-7.82L118.78-7.82Q119.05-5.84 119.76-4.31L119.76-4.31L119.76-4.31Q120.48-2.77 121.75-1.81L121.75-1.81L121.75-1.81Q123.02-0.86 125.05-0.81L125.05-0.81L125.05-0.81Q126.34-0.81 127.36-1.23L127.36-1.23L127.36-1.23Q128.39-1.65 129.16-2.38L129.16-2.38L129.16-2.38Q129.92-3.12 130.47-4.11L130.47-4.11L130.47-4.11Q131.02-5.10 131.40-6.26L131.40-6.26L136.58-4.50L136.58-4.50Q135.79-3.38 134.69-2.44L134.69-2.44L134.69-2.44Q133.59-1.49 132.18-0.80L132.18-0.80L132.18-0.80Q130.76-0.11 129.01 0.29L129.01 0.29L129.01 0.29Q127.27 0.68 125.18 0.68L125.18 0.68L125.18 0.68Q122.83 0.68 120.92 0.16L120.92 0.16L120.92 0.16Q119.00-0.35 117.50-1.25L117.50-1.25L117.50-1.25Q115.99-2.15 114.88-3.37L114.88-3.37L114.88-3.37Q113.77-4.59 113.04-5.98L113.04-5.98L113.04-5.98Q112.30-7.36 111.95-8.85L111.95-8.85L111.95-8.85Q111.60-10.35 111.60-11.80L111.60-11.80L111.60-11.80Q111.60-13.18 111.92-14.64L111.92-14.64L111.92-14.64Q112.24-16.11 112.92-17.51L112.92-17.51L112.92-17.51Q113.60-18.92 114.64-20.16L114.64-20.16L114.64-20.16Q115.69-21.40 117.15-22.35L117.15-22.35L117.15-22.35Q118.61-23.29 120.50-23.84L120.50-23.84L120.50-23.84Q122.39-24.39 124.74-24.39L124.74-24.39L124.74-24.39Q128.19-24.39 130.62-23.53L130.62-23.53L130.62-23.53Q133.04-22.68 134.62-21.21L134.62-21.21L134.62-21.21Q136.19-19.75 136.97-17.82L136.97-17.82L136.97-17.82Q137.75-15.89 137.92-13.73L137.92-13.73ZM124.87-22.85L124.87-22.85L124.87-22.85Q123.27-22.85 122.16-22.26L122.16-22.26L122.16-22.26Q121.05-21.67 120.32-20.63L120.32-20.63L120.32-20.63Q119.60-19.60 119.21-18.20L119.21-18.20L119.21-18.20Q118.83-16.81 118.65-15.21L118.65-15.21L131.04-15.21L131.04-15.21Q130.91-16.79 130.57-18.17L130.57-18.17L130.57-18.17Q130.23-19.56 129.54-20.60L129.54-20.60L129.54-20.60Q128.85-21.64 127.72-22.25L127.72-22.25L127.72-22.25Q126.58-22.85 124.87-22.85ZM164.16-17.73L164.16-17.73L163.43-17.69L163.43-17.69Q162.93-18.72 162.14-19.53L162.14-19.53L162.14-19.53Q161.35-20.35 160.39-20.91L160.39-20.91L160.39-20.91Q159.43-21.47 158.39-21.76L158.39-21.76L158.39-21.76Q157.35-22.06 156.36-22.06L156.36-22.06L156.36-22.06Q154.40-22.06 152.82-21.07L152.82-21.07L152.82-21.07Q151.24-20.08 150.12-18.51L150.12-18.51L150.12-18.51Q149.00-16.94 148.38-14.99L148.38-14.99L148.38-14.99Q147.77-13.03 147.77-11.12L147.77-11.12L147.77-11.12Q147.77-9.10 148.45-7.24L148.45-7.24L148.45-7.24Q149.13-5.38 150.38-3.97L150.38-3.97L150.38-3.97Q151.63-2.55 153.44-1.70L153.44-1.70L153.44-1.70Q155.24-0.86 157.48-0.86L157.48-0.86L157.48-0.86Q159.32-0.86 160.54-1.37L160.54-1.37L160.54-1.37Q161.76-1.89 162.50-2.54L162.50-2.54L162.50-2.54Q163.23-3.19 163.58-3.76L163.58-3.76L163.58-3.76Q163.92-4.33 164.00-4.46L164.00-4.46L163.70-1.89L163.70-1.89Q163.30-1.32 162.54-0.81L162.54-0.81L162.54-0.81Q161.78-0.31 160.76 0.07L160.76 0.07L160.76 0.07Q159.74 0.44 158.48 0.65L158.48 0.65L158.48 0.65Q157.21 0.86 155.79 0.86L155.79 0.86L155.79 0.86Q152.51 0.86 149.82 0.16L149.82 0.16L149.82 0.16Q147.13-0.53 145.18-1.94L145.18-1.94L145.18-1.94Q143.24-3.36 142.17-5.50L142.17-5.50L142.17-5.50Q141.11-7.65 141.11-10.52L141.11-10.52L141.11-10.52Q141.17-13.12 141.83-15.10L141.83-15.10L141.83-15.10Q142.49-17.07 143.66-18.54L143.66-18.54L143.66-18.54Q144.82-20.02 146.44-21.01L146.44-21.01L146.44-21.01Q148.05-21.99 150.01-22.60L150.01-22.60L150.01-22.60Q151.96-23.20 154.24-23.46L154.24-23.46L154.24-23.46Q156.51-23.71 158.97-23.71L158.97-23.71L158.97-23.71Q160.60-23.71 161.82-23.66L161.82-23.66L161.82-23.66Q163.04-23.62 164.05-23.62L164.05-23.62L164.05-23.62Q163.85-22.85 163.77-21.99L163.77-21.99L163.77-21.99Q163.70-21.14 163.70-20.57L163.70-20.57L163.70-20.57Q163.70-19.80 163.82-19.12L163.82-19.12L163.82-19.12Q163.94-18.44 164.16-17.73ZM167.45-11.80L167.45-11.80L167.45-11.80Q167.45-13.18 167.81-14.64L167.81-14.64L167.81-14.64Q168.16-16.11 168.88-17.51L168.88-17.51L168.88-17.51Q169.61-18.92 170.72-20.16L170.72-20.16L170.72-20.16Q171.83-21.40 173.33-22.35L173.33-22.35L173.33-22.35Q174.84-23.29 176.76-23.84L176.76-23.84L176.76-23.84Q178.68-24.39 181.03-24.39L181.03-24.39L181.03-24.39Q183.49-24.39 185.46-23.88L185.46-23.88L185.46-23.88Q187.43-23.38 188.94-22.49L188.94-22.49L188.94-22.49Q190.46-21.60 191.56-20.39L191.56-20.39L191.56-20.39Q192.66-19.18 193.36-17.78L193.36-17.78L193.36-17.78Q194.06-16.37 194.39-14.84L194.39-14.84L194.39-14.84Q194.72-13.32 194.72-11.80L194.72-11.80L194.72-11.80Q194.72-10.35 194.39-8.87L194.39-8.87L194.39-8.87Q194.06-7.38 193.35-6.00L193.35-6.00L193.35-6.00Q192.63-4.61 191.55-3.39L191.55-3.39L191.55-3.39Q190.46-2.18 188.93-1.27L188.93-1.27L188.93-1.27Q187.40-0.37 185.44 0.15L185.44 0.15L185.44 0.15Q183.47 0.68 181.03 0.68L181.03 0.68L181.03 0.68Q178.68 0.68 176.77 0.16L176.77 0.16L176.77 0.16Q174.86-0.35 173.35-1.25L173.35-1.25L173.35-1.25Q171.85-2.15 170.74-3.37L170.74-3.37L170.74-3.37Q169.63-4.59 168.89-5.98L168.89-5.98L168.89-5.98Q168.16-7.36 167.81-8.85L167.81-8.85L167.81-8.85Q167.45-10.35 167.45-11.80ZM174.16-11.89L174.16-11.89L174.16-11.89Q174.16-9.80 174.45-7.82L174.45-7.82L174.45-7.82Q174.75-5.84 175.51-4.31L175.51-4.31L175.51-4.31Q176.26-2.77 177.57-1.81L177.57-1.81L177.57-1.81Q178.88-0.86 180.90-0.81L180.90-0.81L180.90-0.81Q182.24-0.81 183.30-1.26L183.30-1.26L183.30-1.26Q184.35-1.71 185.14-2.50L185.14-2.50L185.14-2.50Q185.93-3.30 186.48-4.35L186.48-4.35L186.48-4.35Q187.03-5.41 187.38-6.61L187.38-6.61L187.38-6.61Q187.73-7.82 187.90-9.12L187.90-9.12L187.90-9.12Q188.06-10.42 188.11-11.69L188.11-11.69L188.11-11.69Q188.11-12.99 187.98-14.33L187.98-14.33L187.98-14.33Q187.84-15.67 187.54-16.91L187.54-16.91L187.54-16.91Q187.23-18.15 186.71-19.24L186.71-19.24L186.71-19.24Q186.20-20.32 185.43-21.13L185.43-21.13L185.43-21.13Q184.66-21.93 183.61-22.39L183.61-22.39L183.61-22.39Q182.57-22.85 181.19-22.85L181.19-22.85L181.19-22.85Q179.17-22.85 177.82-21.94L177.82-21.94L177.82-21.94Q176.48-21.03 175.67-19.51L175.67-19.51L175.67-19.51Q174.86-18.00 174.52-16.01L174.52-16.01L174.52-16.01Q174.18-14.02 174.16-11.89Z" fill="#dfe49b"></path></g></g><style>text {
  font-size: 64px;
  font-family: Arial Black;
  dominant-baseline: central;
  text-anchor: middle;
}</style></svg>